<svg width="23" height="25" viewBox="0 0 23 25" fill="none" xmlns="http://www.w3.org/2000/svg">
<g id="Group 1">
<path id="Vector" d="M4.5 1L1 5.6V21.7C1 22.31 1.24583 22.895 1.68342 23.3263C2.121 23.7577 2.71449 24 3.33333 24H19.6667C20.2855 24 20.879 23.7577 21.3166 23.3263C21.7542 22.895 22 22.31 22 21.7V5.6L18.5 1H4.5Z" stroke="black" stroke-width="2" stroke-linecap="round" stroke-linejoin="round"/>
<path id="Vector_2" d="M1 6H22" stroke="black" stroke-width="2" stroke-linecap="round" stroke-linejoin="round"/>
<path id="Vector_3" d="M16 10C16 11.3261 15.5259 12.5979 14.682 13.5355C13.8381 14.4732 12.6935 15 11.5 15C10.3065 15 9.16193 14.4732 8.31802 13.5355C7.47411 12.5979 7 11.3261 7 10" stroke="black" stroke-width="2" stroke-linecap="round" stroke-linejoin="round"/>
</g>
</svg>
