<svg id="SvgjsSvg1001" width="288" height="288" xmlns="http://www.w3.org/2000/svg" version="1.1" xmlns:xlink="http://www.w3.org/1999/xlink" xmlns:svgjs="http://svgjs.com/svgjs"><defs id="SvgjsDefs1002"></defs><g id="SvgjsG1008"><svg xmlns="http://www.w3.org/2000/svg" viewBox="0 0 32 32" width="288" height="288"><path fill="#f48e28" d="M0 0 C1.22589844 0.01353516 1.22589844 0.01353516 2.4765625 0.02734375 C3.41628906 0.04474609 3.41628906 0.04474609 4.375 0.0625 C4.375 2.0425 4.375 4.0225 4.375 6.0625 C2.725 6.3925 1.075 6.7225 -0.625 7.0625 C-0.955 8.3825 -1.285 9.7025 -1.625 11.0625 C0.355 11.0625 2.335 11.0625 4.375 11.0625 C4.045 13.3725 3.715 15.6825 3.375 18.0625 C1.725 18.0625 0.075 18.0625 -1.625 18.0625 C-1.625 22.6825 -1.625 27.3025 -1.625 32.0625 C-3.935 32.0625 -6.245 32.0625 -8.625 32.0625 C-8.625 27.4425 -8.625 22.8225 -8.625 18.0625 C-10.275 18.0625 -11.925 18.0625 -13.625 18.0625 C-13.625 15.7525 -13.625 13.4425 -13.625 11.0625 C-11.975 11.0625 -10.325 11.0625 -8.625 11.0625 C-8.66625 10.155 -8.7075 9.2475 -8.75 8.3125 C-8.62898426 5.16609074 -8.34395868 3.64093802 -6.625 1.0625 C-4.21954362 -0.14022819 -2.67503047 -0.03821472 0 0 Z " transform="translate(20.625 -.063)" class="color000002 svgShape"></path></svg></g></svg>