<svg id="SvgjsSvg1011" width="288" height="288" xmlns="http://www.w3.org/2000/svg" version="1.1" xmlns:xlink="http://www.w3.org/1999/xlink" xmlns:svgjs="http://svgjs.com/svgjs"><defs id="SvgjsDefs1012"></defs><g id="SvgjsG1013"><svg xmlns="http://www.w3.org/2000/svg" viewBox="0 0 32 32" width="288" height="288"><path d="M 16 2.882812 C 20.273438 2.882812 20.777344 2.898438 22.464844 2.976562 C 24.210938 3.054688 26.003906 3.453125 27.277344 4.722656 C 28.558594 6.007812 28.945312 7.785156 29.023438 9.535156 C 29.101562 11.222656 29.117188 11.726562 29.117188 16 C 29.117188 20.273438 29.101562 20.777344 29.023438 22.464844 C 28.945312 24.199219 28.539062 26.011719 27.277344 27.277344 C 25.992188 28.558594 24.214844 28.945312 22.464844 29.023438 C 20.777344 29.101562 20.273438 29.117188 16 29.117188 C 11.726562 29.117188 11.222656 29.101562 9.535156 29.023438 C 7.8125 28.945312 5.976562 28.53125 4.722656 27.277344 C 3.449219 26 3.054688 24.203125 2.976562 22.464844 C 2.898438 20.777344 2.882812 20.273438 2.882812 16 C 2.882812 11.726562 2.898438 11.222656 2.976562 9.535156 C 3.054688 7.808594 3.464844 5.984375 4.722656 4.722656 C 6.003906 3.445312 7.789062 3.054688 9.535156 2.976562 C 11.222656 2.898438 11.726562 2.882812 16 2.882812 M 16 0 C 11.65625 0 11.109375 0.0195312 9.402344 0.0976562 C 6.929688 0.210938 4.472656 0.898438 2.683594 2.683594 C 0.890625 4.480469 0.210938 6.929688 0.0976562 9.402344 C 0.0195312 11.109375 0 11.65625 0 16 C 0 20.34375 0.0195312 20.890625 0.0976562 22.597656 C 0.210938 25.066406 0.898438 27.53125 2.683594 29.316406 C 4.480469 31.109375 6.933594 31.789062 9.402344 31.902344 C 11.109375 31.980469 11.65625 32 16 32 C 20.34375 32 20.890625 31.980469 22.597656 31.902344 C 25.070312 31.789062 27.527344 31.101562 29.316406 29.316406 C 31.109375 27.519531 31.789062 25.070312 31.902344 22.597656 C 31.980469 20.890625 32 20.34375 32 16 C 32 11.65625 31.980469 11.109375 31.902344 9.402344 C 31.789062 6.929688 31.101562 4.472656 29.316406 2.683594 C 27.523438 0.894531 25.0625 0.207031 22.597656 0.0976562 C 20.890625 0.0195312 20.34375 0 16 0 Z M 16 0 " fill="#f48e28" class="color000 svgShape"></path><path d="M16 7.785156C11.460938 7.785156 7.785156 11.460938 7.785156 16 7.785156 20.539062 11.460938 24.214844 16 24.214844 20.539062 24.214844 24.214844 20.539062 24.214844 16 24.214844 11.460938 20.539062 7.785156 16 7.785156zM16 21.332031C13.054688 21.332031 10.667969 18.945312 10.667969 16 10.667969 13.054688 13.054688 10.667969 16 10.667969 18.945312 10.667969 21.332031 13.054688 21.332031 16 21.332031 18.945312 18.945312 21.332031 16 21.332031zM26.460938 7.457031C26.460938 8.519531 25.601562 9.378906 24.542969 9.378906 23.480469 9.378906 22.621094 8.519531 22.621094 7.457031 22.621094 6.398438 23.480469 5.539062 24.542969 5.539062 25.601562 5.539062 26.460938 6.398438 26.460938 7.457031zM26.460938 7.457031" fill="#f48e28" class="color000 svgShape"></path></svg></g></svg>