<svg id="SvgjsSvg1017" width="288" height="288" xmlns="http://www.w3.org/2000/svg" version="1.1" xmlns:xlink="http://www.w3.org/1999/xlink" xmlns:svgjs="http://svgjs.com/svgjs"><defs id="SvgjsDefs1018"></defs><g id="SvgjsG1019"><svg xmlns="http://www.w3.org/2000/svg" viewBox="0 0 32 32" width="288" height="288"><path d="M0 0 C13.31165741 -0.36637589 13.31165741 -0.36637589 15.9375 1.03125 C17.6088262 4.12811914 17.3120385 7.26748117 17.1875 10.6875 C17.16719727 11.7403418 17.16719727 11.7403418 17.14648438 12.81445312 C17.11120182 14.54329829 17.05739583 16.27174765 17 18 C15.02 18 13.04 18 11 18 C10.67 14.37 10.34 10.74 10 7 C9.01 7 8.02 7 7 7 C6.67 10.63 6.34 14.26 6 18 C4.02 18 2.04 18 0 18 C0 12.06 0 6.12 0 0 Z " transform="translate(12 11)" fill="#f48e28" class="color000 svgShape"></path><path d="M0 0 C1.98 0 3.96 0 6 0 C6 5.94 6 11.88 6 18 C4.02 18 2.04 18 0 18 C0 12.06 0 6.12 0 0 Z " transform="translate(3 11)" fill="#f48e28" class="color000 svgShape"></path><path d="M0 0 C1.2065625 0.0309375 1.2065625 0.0309375 2.4375 0.0625 C3.0625 2.4375 3.0625 2.4375 3.4375 5.0625 C2.7775 5.7225 2.1175 6.3825 1.4375 7.0625 C-1.1875 6.6875 -1.1875 6.6875 -3.5625 6.0625 C-3.605221 4.39638095 -3.60313832 2.72867115 -3.5625 1.0625 C-2.5625 0.0625 -2.5625 0.0625 0 0 Z " transform="translate(6.563 2.938)" fill="#f48e28" class="color000 svgShape"></path></svg></g></svg>