<svg id="SvgjsSvg1024" width="288" height="288" xmlns="http://www.w3.org/2000/svg" version="1.1" xmlns:xlink="http://www.w3.org/1999/xlink" xmlns:svgjs="http://svgjs.com/svgjs"><defs id="SvgjsDefs1025"></defs><g id="SvgjsG1026"><svg xmlns="http://www.w3.org/2000/svg" viewBox="0 0 32 32" width="288" height="288"><path d="M 28.722656 9.472656 C 28.742188 9.753906 28.742188 10.035156 28.742188 10.320312 C 28.742188 18.996094 22.136719 29 10.0625 29 L 10.0625 28.996094 C 6.496094 29 3.003906 27.980469 0 26.050781 C 0.519531 26.113281 1.039062 26.144531 1.5625 26.148438 C 4.519531 26.148438 7.390625 25.15625 9.714844 23.332031 C 6.90625 23.277344 4.441406 21.445312 3.582031 18.769531 C 4.566406 18.960938 5.578125 18.921875 6.546875 18.660156 C 3.484375 18.039062 1.28125 15.347656 1.28125 12.222656 C 1.28125 12.195312 1.28125 12.167969 1.28125 12.140625 C 2.191406 12.648438 3.214844 12.929688 4.261719 12.960938 C 1.375 11.035156 0.484375 7.199219 2.226562 4.199219 C 5.558594 8.296875 10.480469 10.792969 15.757812 11.058594 C 15.226562 8.777344 15.953125 6.386719 17.65625 4.785156 C 20.300781 2.296875 24.457031 2.425781 26.945312 5.070312 C 28.414062 4.78125 29.824219 4.238281 31.113281 3.476562 C 30.625 4.996094 29.597656 6.285156 28.226562 7.109375 C 29.53125 6.953125 30.800781 6.605469 32 6.074219 C 31.117188 7.390625 30.007812 8.542969 28.722656 9.472656 Z M 28.722656 9.472656 " fill="#f48e28" class="color000 svgShape"></path></svg></g></svg>