<svg id="SvgjsSvg1032" width="288" height="288" xmlns="http://www.w3.org/2000/svg" version="1.1" xmlns:xlink="http://www.w3.org/1999/xlink" xmlns:svgjs="http://svgjs.com/svgjs"><circle id="SvgjsCircle1041" r="144" cx="144" cy="144" transform="matrix(0.7916,0,0,0.7916,30.009600000000006,30.009600000000006)" fill="#f5ddc4"></circle><defs id="SvgjsDefs1033"></defs><g id="SvgjsG1034" transform="matrix(0.4652,0,0,0.4652,74.6046,74.6046)"><svg xmlns="http://www.w3.org/2000/svg" fill-rule="evenodd" clip-rule="evenodd" image-rendering="optimizeQuality" shape-rendering="geometricPrecision" text-rendering="geometricPrecision" viewBox="0 0 32 32" width="288" height="288"><path d="M 1.5,-0.5 C 2.5,-0.5 3.5,-0.5 4.5,-0.5C 8.16667,3.83333 12.1667,7.83333 16.5,11.5C 16.5,12.1667 16.8333,12.5 17.5,12.5C 17.5,13.1667 17.8333,13.5 18.5,13.5C 18.5,14.1667 18.8333,14.5 19.5,14.5C 23.1667,18.8333 27.1667,22.8333 31.5,26.5C 31.5,28.1667 31.5,29.8333 31.5,31.5C 29.8333,31.5 28.1667,31.5 26.5,31.5C 22.8362,27.6678 19.3362,23.6678 16,19.5C 15.3292,20.2524 14.4959,20.5858 13.5,20.5C 13.5,19.8333 13.1667,19.5 12.5,19.5C 12.5,18.8333 12.1667,18.5 11.5,18.5C 11.5,17.8333 11.1667,17.5 10.5,17.5C 7.87121,14.3694 5.03787,11.3694 2,8.5C 0.337403,5.54368 0.170736,2.54368 1.5,-0.5 Z" opacity=".846" fill="#f48e28" class="color000 svgShape"></path><path d="M 23.5,-0.5 C 24.5,-0.5 25.5,-0.5 26.5,-0.5C 27.8333,1.5 29.5,3.16667 31.5,4.5C 31.5,5.5 31.5,6.5 31.5,7.5C 29.0365,9.46114 26.7032,11.6278 24.5,14C 22.8659,14.4935 21.1992,14.6602 19.5,14.5C 18.8333,14.5 18.5,14.1667 18.5,13.5C 17.8333,13.5 17.5,13.1667 17.5,12.5C 16.8333,12.5 16.5,12.1667 16.5,11.5C 16.3398,9.80081 16.5065,8.13414 17,6.5C 19.3722,4.29681 21.5389,1.96348 23.5,-0.5 Z" opacity=".667" fill="#f48e28" class="color000 svgShape"></path><path d="M 10.5,17.5 C 11.1667,17.5 11.5,17.8333 11.5,18.5C 12.1667,18.5 12.5,18.8333 12.5,19.5C 13.1667,19.5 13.5,19.8333 13.5,20.5C 10.9015,24.438 7.90154,28.1047 4.5,31.5C 2.83333,31.5 1.16667,31.5 -0.5,31.5C -0.5,29.8333 -0.5,28.1667 -0.5,26.5C 2.89533,23.0985 6.56199,20.0985 10.5,17.5 Z" opacity=".824" fill="#f48e28" class="color000 svgShape"></path></svg></g></svg>