<svg id="SvgjsSvg1023" width="288" height="288" xmlns="http://www.w3.org/2000/svg" version="1.1" xmlns:xlink="http://www.w3.org/1999/xlink" xmlns:svgjs="http://svgjs.com/svgjs"><circle id="SvgjsCircle1030" r="144" cx="144" cy="144" transform="matrix(0.7916,0,0,0.7916,30.009600000000006,30.009600000000006)" fill="#f5ddc4"></circle><defs id="SvgjsDefs1024"></defs><g id="SvgjsG1025" transform="matrix(0.4652,0,0,0.4652,74.59135158996583,74.6046)"><svg xmlns="http://www.w3.org/2000/svg" fill-rule="evenodd" clip-rule="evenodd" image-rendering="optimizeQuality" shape-rendering="geometricPrecision" text-rendering="geometricPrecision" viewBox="0 0 32 32" width="288" height="288"><path d="M 4.5,-0.5 C 7.83333,-0.5 11.1667,-0.5 14.5,-0.5C 14.6657,3.84611 14.499,8.17944 14,12.5C 13.2496,13.1258 12.4162,13.6258 11.5,14C 12.8125,19.833 12.8125,25.6663 11.5,31.5C 9.83333,31.5 8.16667,31.5 6.5,31.5C 6.63969,20.6661 5.97302,9.99939 4.5,-0.5 Z" opacity=".735" fill="#f48e28" class="color000 svgShape"></path><path d="M 17.5,-0.5 C 19.8333,-0.5 22.1667,-0.5 24.5,-0.5C 27.3167,4.28987 27.15,8.95653 24,13.5C 23.9424,19.5882 23.7757,25.5882 23.5,31.5C 21.8333,31.5 20.1667,31.5 18.5,31.5C 18.2243,25.5882 18.0576,19.5882 18,13.5C 14.85,8.95653 14.6833,4.28987 17.5,-0.5 Z" opacity=".845" fill="#f48e28" class="color000 svgShape"></path></svg></g></svg>