<svg id="SvgjsSvg1001" width="288" height="288" xmlns="http://www.w3.org/2000/svg" version="1.1" xmlns:xlink="http://www.w3.org/1999/xlink" xmlns:svgjs="http://svgjs.com/svgjs"><circle id="SvgjsCircle1013" r="144" cx="144" cy="144" transform="matrix(0.7916,0,0,0.7916,30.009600000000006,30.009600000000006)" fill="#f5ddc4"></circle><defs id="SvgjsDefs1002"></defs><g id="SvgjsG1008" transform="matrix(0.4652,0,0,0.4652,74.6046,74.6046)"><svg xmlns="http://www.w3.org/2000/svg" fill-rule="evenodd" clip-rule="evenodd" image-rendering="optimizeQuality" shape-rendering="geometricPrecision" text-rendering="geometricPrecision" viewBox="0 0 32 32" width="288" height="288"><path d="M 21.5,11.5 C 24.6248,12.4794 27.9581,12.8128 31.5,12.5C 31.5,15.8333 31.5,19.1667 31.5,22.5C 29.5107,23.4814 27.5107,24.4814 25.5,25.5C 23.7923,25.2972 22.459,24.4638 21.5,23C 20,22.8333 18.5,22.6667 17,22.5C 13.8817,22.8176 11.0484,23.8176 8.5,25.5C 6.66819,24.1786 4.66819,23.1786 2.5,22.5C 2.5,21.1667 2.5,19.8333 2.5,18.5C 1.5,18.5 0.5,18.5 -0.5,18.5C -0.5,16.5 -0.5,14.5 -0.5,12.5C 8.66631,12.4656 8.66631,11.7989 -0.5,10.5C -0.5,10.1667 -0.5,9.83333 -0.5,9.5C 1.53235,8.95218 2.53235,7.61885 2.5,5.5C 8.5,5.5 14.5,5.5 20.5,5.5C 20.2053,7.73535 20.5386,9.73535 21.5,11.5 Z M 7.5,21.5 C 8.07683,20.2267 8.7435,20.2267 9.5,21.5C 9.03017,22.463 8.3635,22.463 7.5,21.5 Z M 24.5,20.5 C 26.337,20.6395 26.6704,21.3061 25.5,22.5C 24.7025,22.0431 24.3691,21.3764 24.5,20.5 Z" opacity=".844" fill="#f48e28" class="color000 svgShape"></path><path d="M 21.5,11.5 C 20.7855,4.97 22.6188,3.97 27,8.5C 27.4828,9.44802 27.6495,10.448 27.5,11.5C 25.5,11.5 23.5,11.5 21.5,11.5 Z" opacity=".52" fill="#f48e28" class="color000 svgShape"></path></svg></g></svg>